<svg width="351" height="512" viewBox="0 0 351 512" fill="none" xmlns="http://www.w3.org/2000/svg">
<g clip-path="url(#clip0)">
<path fill-rule="evenodd" clip-rule="evenodd" d="M152.328 107.998C170.887 107.998 177.074 116.921 177.074 122.194C177.074 116.921 183.97 107.998 203.036 107.998H233.259C235.388 119.152 234.07 132.741 230.013 145.417C222.306 160.323 206.485 167.422 195.024 180.097C183.97 195.815 185.897 227.353 189.142 235.668C193.909 247.533 211.555 254.023 222.407 254.124C233.259 254.225 257.801 261.121 257.7 284.749L235.997 284.647C230.317 265.989 183.159 272.276 161.253 243.882C152.125 225.122 161.456 201.19 154.661 181.923C146.04 165.698 137.217 170.869 125.351 145.518C120.889 136.594 119.063 123.31 120.889 107.998H152.328ZM60.9518 271.566H73.0204V279.273H60.9518V271.566ZM169.569 263.96L180.015 268.625C164.397 277.143 148.779 284.647 135.493 296.208C116.528 310.202 102.533 343.564 99.4901 355.936C95.6363 356.24 92.898 354.415 89.5513 351.474C90.464 319.227 122.714 287.588 142.896 276.433C151.517 271.464 159.63 267.307 169.569 263.96ZM93.9122 276.94C91.7824 296.917 102.127 316.793 82.3507 339.204C85.3932 332.917 82.9592 328.658 79.3082 327.441C84.5819 323.79 86.2045 317.199 80.728 313.244C84.9875 310.404 85.1904 301.785 80.5252 299.25C86.6102 294.179 81.8436 285.154 88.3343 280.692C90.2612 278.461 91.7824 277.346 93.8108 276.94H93.9122V276.94ZM191.881 271.363C199.69 275.622 225.754 279.07 227.883 287.994L229.405 301.278C226.666 304.016 223.725 308.782 223.725 313.954C226.362 331.7 242.792 347.113 255.57 353.908C247.558 359.282 231.636 363.643 222.306 353.908C216.018 345.288 201.312 341.638 193.909 346.911C181.638 355.632 179.812 357.761 176.262 370.234C173.727 361.31 168.96 348.432 159.224 346.606C152.227 342.449 141.781 343.868 131.233 352.995C123.526 359.586 117.238 358.471 110.342 356.95C111.052 350.358 112.877 333.221 117.035 326.731C132.349 300.365 165.208 284.546 191.881 271.363ZM296.948 294.484C297.759 295.802 296.644 298.743 295.63 300.162C290.762 299.655 286.908 299.858 284.474 304.726C282.141 300.162 269.971 299.655 266.118 304.726C260.641 299.453 252.021 298.946 248.167 305.638C245.936 302.9 243.096 300.872 239.648 300.771C237.619 299.655 237.214 296.512 237.112 294.484H296.948ZM71.6005 287.588C80.728 286.574 78.5983 298.134 72.0062 297.12H53.6498C46.3478 297.83 43.5082 287.284 52.9399 287.588H71.6005ZM71.6005 301.886C80.728 300.872 78.5983 312.534 72.0062 311.418H53.6498C46.3478 312.128 43.5082 301.582 52.9399 301.886H71.6005ZM71.6005 315.779C80.728 314.765 78.5983 326.427 72.0062 325.311H53.6498C46.3478 326.021 43.5082 315.475 52.9399 315.779H71.6005ZM70.8906 329.976C80.0181 328.86 77.8884 340.522 71.2963 339.407H52.9399C45.6379 340.218 42.7982 329.57 52.23 329.976H70.8906ZM53.7512 348.026C56.8952 361.31 67.9496 372.769 80.3224 376.724L80.4238 358.167C94.5207 366.685 118.962 372.059 135.29 361.615C135.493 363.947 137.318 365.671 139.651 366.786C133.972 371.654 134.884 378.245 139.651 383.011C134.58 386.561 134.986 396.397 139.955 399.946C134.986 404.104 133.16 412.825 140.564 417.996C138.434 418.503 136.406 420.227 136.507 424.182C101.924 392.341 64.4 440.204 27.89 424.993C-4.66469 406.436 9.73645 330.99 53.7512 348.026ZM308.003 341.739C350.09 347.012 354.147 418.808 308.51 428.948C277.273 433.816 248.268 402.481 215.511 423.067C216.221 420.937 213.787 418.301 211.961 417.388C217.336 412.216 217.539 405.016 212.671 400.453C217.64 396.904 218.147 387.473 212.975 382.91C218.046 378.549 217.539 370.538 213.279 366.786C214.699 365.772 216.829 364.961 217.336 361.716C226.261 372.972 250.804 372.364 273.825 356.139C289.342 355.834 302.019 349.142 308.003 341.739ZM73.1218 349.04V365.772C65.8198 359.688 64.8056 357.356 63.4872 349.243L73.1218 349.04ZM31.2368 62.5676C35.192 62.5676 38.4373 59.3226 38.4373 55.3678C38.4373 51.413 35.192 48.0665 31.2368 48.0665C27.2815 48.0665 23.9348 51.413 23.9348 55.3678C24.0362 59.424 27.2815 62.5676 31.2368 62.5676ZM30.1212 43.5033C34.0764 43.5033 37.4232 40.1569 37.4232 36.202C37.4232 32.2472 34.0764 29.0022 30.1212 29.0022C26.1659 29.0022 22.9206 32.2472 22.9206 36.202C23.022 40.2583 26.2674 43.5033 30.1212 43.5033ZM40.8713 27.1769C44.8266 27.1769 48.0719 23.8305 48.0719 19.8756C48.0719 15.9208 44.8266 12.6758 40.8713 12.6758C36.9161 12.6758 33.5693 15.9208 33.5693 19.8756C33.5693 23.9319 36.9161 27.1769 40.8713 27.1769ZM57.9093 16.225C61.8646 16.225 65.2113 12.98 65.2113 9.02515C65.2113 5.07031 61.8646 1.72391 57.9093 1.72391C53.9541 1.72391 50.7087 5.07031 50.7087 9.02515C50.7087 12.98 53.9541 16.225 57.9093 16.225ZM78.6997 17.0362C82.655 17.0362 86.0017 13.6898 86.0017 9.735C86.0017 5.78015 82.655 2.53516 78.6997 2.53516C74.7445 2.53516 71.4991 5.78015 71.4991 9.735C71.6006 13.6898 74.8459 17.0362 78.6997 17.0362ZM95.5349 25.1487C99.4901 25.1487 102.837 21.9037 102.837 17.9489C102.837 13.9941 99.4901 10.6477 95.5349 10.6477C91.5796 10.6477 88.3343 13.9941 88.3343 17.9489C88.4357 21.9037 91.681 25.1487 95.5349 25.1487ZM105.068 42.5906C109.023 42.5906 112.269 39.2442 112.269 35.2894C112.269 31.3345 109.023 28.0895 105.068 28.0895C101.113 28.0895 97.766 31.3345 97.766 35.2894C97.766 39.2442 101.113 42.5906 105.068 42.5906ZM105.981 60.7423C109.936 60.7423 113.283 57.4973 113.283 53.5425C113.283 49.5876 109.936 46.2412 105.981 46.2412C102.026 46.2412 98.7802 49.5876 98.7802 53.5425C98.7802 57.5987 102.026 60.7423 105.981 60.7423ZM203.543 431.382C207.093 431.382 209.933 428.543 209.933 424.993C209.933 421.444 207.093 418.706 203.543 418.706C199.994 418.706 197.154 421.444 197.154 424.993C197.256 428.543 199.994 431.382 203.543 431.382ZM149.184 431.788C152.632 431.788 155.472 428.847 155.472 425.399C155.472 421.951 152.632 419.01 149.184 419.01C145.736 419.01 142.795 421.951 142.795 425.399C142.896 428.847 145.837 431.788 149.184 431.788ZM203.645 415.867C207.6 415.867 210.845 412.622 210.845 408.667C210.845 404.712 207.6 401.467 203.645 401.467C199.69 401.467 196.444 404.712 196.444 408.667C196.546 412.622 199.69 415.867 203.645 415.867ZM149.083 416.273C153.038 416.273 156.385 413.028 156.385 409.073C156.385 405.118 153.038 401.873 149.083 401.873C145.128 401.873 141.984 405.118 141.984 409.073C142.085 413.028 145.229 416.273 149.083 416.273ZM203.645 398.932C207.6 398.932 210.845 395.687 210.845 391.732C210.845 387.777 207.6 384.532 203.645 384.532C199.69 384.532 196.444 387.777 196.444 391.732C196.546 395.687 199.69 398.932 203.645 398.932ZM149.083 399.236C153.038 399.236 156.385 395.89 156.385 391.935C156.385 387.98 153.038 384.837 149.083 384.837C145.128 384.837 141.984 387.98 141.984 391.935C142.085 395.89 145.229 399.236 149.083 399.236ZM203.645 382.2C207.6 382.2 210.845 378.955 210.845 375C210.845 371.045 207.6 367.8 203.645 367.8C199.69 367.8 196.444 371.045 196.444 375C196.546 378.955 199.69 382.2 203.645 382.2ZM149.083 381.592C153.038 381.592 156.385 378.448 156.385 374.493C156.385 370.538 153.038 367.293 149.083 367.293C145.128 367.293 141.984 370.538 141.984 374.493C142.085 378.448 145.229 381.592 149.083 381.592ZM203.645 365.468C207.6 365.468 210.845 362.223 210.845 358.268C210.845 354.313 207.6 351.068 203.645 351.068C199.69 351.068 196.444 354.313 196.444 358.268C196.546 362.223 199.69 365.468 203.645 365.468ZM149.083 365.265C153.038 365.265 156.385 362.02 156.385 358.065C156.385 354.111 153.038 350.866 149.083 350.866C145.128 350.866 141.984 354.111 141.984 358.065C142.085 362.02 145.229 365.265 149.083 365.265ZM177.074 325.92C181.029 325.92 184.376 322.675 184.376 318.72C184.376 314.765 181.029 311.418 177.074 311.418C173.119 311.418 169.873 314.765 169.873 318.72C169.873 322.675 173.119 325.92 177.074 325.92ZM237.822 321.255C241.778 321.255 245.124 318.01 245.124 314.055C245.124 310.1 241.778 306.754 237.822 306.754C233.867 306.754 230.622 310.1 230.622 314.055C230.723 318.111 233.968 321.255 237.822 321.255ZM256.99 321.255C260.945 321.255 264.191 318.01 264.191 314.055C264.191 310.1 260.945 306.754 256.99 306.754C253.035 306.754 249.688 310.1 249.688 314.055C249.789 318.111 253.035 321.255 256.99 321.255ZM275.448 321.255C279.403 321.255 282.75 318.01 282.75 314.055C282.75 310.1 279.403 306.754 275.448 306.754C271.493 306.754 268.247 310.1 268.247 314.055C268.349 318.111 271.493 321.255 275.448 321.255ZM294.108 321.255C298.064 321.255 301.309 318.01 301.309 314.055C301.309 310.1 298.064 306.754 294.108 306.754C290.153 306.754 286.806 310.1 286.806 314.055C286.806 318.111 290.153 321.255 294.108 321.255ZM160.543 357.254C161.557 360.803 161.76 364.555 158.413 367.293C163.078 372.059 161.76 378.549 157.906 383.417C162.47 387.777 162.267 396.6 157.805 400.453C162.267 404.307 162.774 411.608 157.399 416.881C159.833 419.213 161.05 422.154 161.05 425.298C169.772 414.447 169.468 396.701 169.468 390.617C169.468 386.966 169.772 366.888 160.543 357.254ZM191.069 357.153C190.055 360.702 189.751 364.555 193.199 367.293C188.432 372.059 189.751 378.549 193.605 383.417C189.041 387.777 189.345 396.6 193.706 400.453C189.345 404.307 188.838 411.608 194.213 416.881C191.779 419.213 191.373 422.255 191.373 425.399C182.652 414.549 182.145 396.701 182.145 390.617C182.145 386.865 181.84 366.685 191.069 357.153ZM176.668 512C164.397 477.116 75.4544 497.803 48.0719 490.908C9.33079 481.173 13.286 458.052 7.91096 434.83C31.8453 459.979 67.5439 446.897 103.445 446.897C130.016 446.897 164.397 442.841 176.567 457.748C188.635 442.841 223.015 446.897 249.587 446.897C285.589 446.897 316.217 459.979 343.093 434.83C340.659 455.922 342.89 485.634 305.061 490.908C277.172 494.761 188.838 477.116 176.668 512ZM176.668 497.195C167.845 486.648 160.441 483.201 138.231 480.97C116.934 478.84 77.3813 479.956 51.3172 479.144C32.6566 478.536 20.588 472.147 18.5597 452.475C32.758 463.731 64.7042 458.052 95.8391 457.95C131.335 457.748 167.642 455.01 176.668 473.263C185.593 455.01 221.9 457.748 257.396 457.95C288.429 458.052 320.477 463.832 334.675 452.475C332.647 472.249 320.477 478.637 301.816 479.144C275.752 479.956 236.2 478.84 214.902 480.97C192.793 483.201 185.289 486.648 176.668 497.195ZM317.84 53.6439C309.524 48.7764 289.545 45.1258 272.507 57.9029L283.865 73.2153L278.997 77.7786L249.789 41.3737L254.86 37.3175L267.639 51.8186C281.33 40.5625 284.677 27.8867 283.257 11.8645C295.123 15.5152 315 26.2642 317.84 53.6439ZM172.409 39.7512C172.409 66.6239 173.321 82.9503 168.251 91.9754C165.614 95.0176 163.383 96.0317 159.326 97.0457H148.677C149.184 60.5395 155.979 50.0947 172.409 39.7512ZM182.55 39.7512C182.55 66.6239 181.638 82.9503 186.81 91.9754C189.345 95.0176 191.678 96.0317 195.734 97.0457H206.383C205.876 60.5395 199.183 50.0947 182.55 39.7512ZM151.821 48.3708C138.434 63.0747 138.13 74.9392 138.333 96.9443H121.497C122.816 68.5506 126.061 60.6409 151.821 48.3708ZM203.239 48.3708C216.525 63.0747 216.829 74.9392 216.728 96.9443H233.563C232.346 68.5506 228.999 60.6409 203.239 48.3708ZM44.1167 73.9251V87.4122C42.7983 92.0768 37.7274 91.2656 36.3076 86.8037C35.8005 80.4151 36.5104 80.6179 37.5246 75.0406C38.6402 69.7675 42.5954 68.3478 44.1167 73.9251ZM57.7065 74.1279L57.6051 86.2967C56.2867 92.3811 50.6073 92.5839 48.9847 85.7897V74.2293C49.3903 67.7393 56.8952 68.3478 57.7065 74.1279ZM70.6878 74.1279V86.2967C69.3694 92.3811 63.6901 92.5839 62.1688 85.7897V74.2293C62.4731 67.7393 69.9779 68.3478 70.6878 74.1279ZM83.5677 74.1279L83.4663 86.2967C82.2493 92.3811 76.4685 92.5839 74.9473 85.7897V74.2293C75.353 67.7393 82.7564 68.3478 83.5677 74.1279ZM93.9122 74.5336L95.4334 97.0457C82.0465 97.0457 61.966 114.589 53.1427 122.702C41.7841 116.921 36.8147 101.203 36.1048 93.2937C38.5388 96.8429 39.5529 95.119 41.1756 95.5247C44.7252 94.3078 45.7393 93.4965 47.2606 90.3529C48.1733 93.4965 48.3762 95.119 53.2442 95.5247C55.881 94.612 59.4306 94.612 60.2419 90.6572C61.2561 94.4092 61.8646 95.119 66.2255 95.3218C69.0651 95.0176 71.8034 94.105 72.7161 89.9473C74.136 93.3951 75.86 94.9162 80.6266 95.3218C83.3649 94.5106 86.4074 92.4825 87.0159 89.4403C88.2329 82.7475 88.5371 78.2856 94.0136 74.3308L93.9122 74.5336ZM288.023 93.4965C286.908 98.4654 290.255 104.144 297.151 102.116C293.703 109.62 303.135 113.372 306.278 111.851C304.352 116.921 309.727 123.716 315.203 120.572C314.189 126.656 318.651 126.251 322.708 127.265C319.564 130.713 308.611 133.552 303.946 132.234C293.804 127.062 285.894 114.488 278.085 107.896C275.346 103.739 274.434 98.4654 276.361 93.9022C284.068 86.6009 289.849 79.5025 297.861 74.3308C301.005 83.9644 289.849 85.4854 288.023 93.4965ZM321.39 95.5247L309.625 104.753C305.569 107.896 300.903 102.42 304.656 99.0739L317.231 89.2375C321.39 87.1079 325.345 91.6712 321.39 95.5247ZM312.668 86.3981L300.903 95.5247C296.847 98.8711 292.182 93.2937 295.934 89.9473L308.51 80.1109C312.668 77.88 316.623 82.4433 312.668 86.3981ZM329.706 104.753L317.941 113.879C313.986 117.124 309.321 111.648 312.972 108.302L325.548 98.364C329.706 96.1331 333.661 100.696 329.706 104.753ZM336.196 114.082C333.762 118.747 331.227 120.065 326.663 122.397C322.099 124.223 318.651 119.761 321.491 117.226L333.052 107.896C337.211 104.955 339.949 107.998 336.196 114.082ZM177.074 93.6993L184.68 101.305L177.074 109.113L169.366 101.305L177.074 93.6993ZM109.632 107.896C111.153 121.079 108.009 137 116.832 152.312C96.6504 157.788 80.728 161.134 68.1524 171.275C58.2136 171.275 32.5552 148.864 40.2628 144.808C53.447 138.622 66.3269 122.296 79.4096 115.299C92.3909 108.099 99.0844 107.693 109.632 107.896ZM272 115.603C283.764 128.887 300.092 141.36 311.654 145.924C320.375 152.819 303.033 165.901 287.821 171.681C269.566 162.453 259.018 158.194 238.431 152.312C244.82 139.941 245.733 123.614 244.212 107.288C254.86 107.085 264.292 106.882 272 115.603ZM121.903 161.642C126.568 167.726 129.408 169.247 133.769 172.492L117.542 203.015L134.783 213.156L148.17 199.669C148.474 241.55 152.328 251.183 162.774 259.6C140.057 269.031 117.644 288.298 101.214 307.971L101.823 264.366C97.2589 262.744 89.4499 264.67 87.1173 268.625L87.9286 219.139C78.0912 233.234 80.1195 254.732 79.511 265.583L53.1427 265.684V280.388C49.2889 281.605 45.3337 280.287 42.5954 284.343C37.3218 290.63 39.2487 296.512 43.8124 298.946C36.1048 301.582 39.1473 312.534 43.4067 313.649C36.9161 314.359 39.6543 321.762 40.8713 325.108C26.1659 306.551 24.5433 282.315 24.6447 257.369C27.5858 228.367 45.0294 198.046 72.8176 178.678C89.6527 168.74 102.837 164.379 121.903 161.642ZM231.332 162.858L241.372 165.292C241.372 177.765 235.287 199.973 228.188 209.404C224.334 200.886 216.423 188.616 214.192 178.576L231.129 162.858H231.332ZM259.12 169.247C261.757 190.441 245.226 217.314 239.445 227.049C237.112 224.615 233.867 219.544 231.839 214.88C240.865 203.218 248.471 184.052 249.688 166.813L259.12 169.247ZM326.359 260.107C328.59 301.683 320.375 331.801 282.75 346.708C265.915 353.299 244.414 340.218 239.344 326.325C241.575 325.92 245.936 326.224 247.964 322.877C253.339 329.063 259.221 329.266 265.509 323.689C274.332 330.179 280.924 326.832 283.764 323.689C287.618 327.136 294.311 329.063 299.788 325.615C306.481 322.877 310.944 309.39 302.627 303.002C308.307 299.148 306.481 289.616 308.205 284.85L272.608 284.647C272.608 260.208 274.637 230.801 265.813 220.356L264.089 278.766C260.337 260.614 244.313 250.676 229.81 247.735C243.502 239.623 267.436 195.308 267.03 171.072C308.003 190.846 324.533 226.846 326.359 260.107ZM147.156 191.658L133.87 205.956L126.873 201.291L139.448 179.388C143.099 181.213 147.156 185.371 147.156 191.658ZM208.716 184.052C216.119 199.162 223.725 213.054 233.461 226.339C219.669 225.527 203.036 203.421 199.385 192.976C198.473 190.035 204.152 183.849 208.716 184.052ZM218.147 225.122C213.381 231.612 206.89 236.074 201.617 239.116C188.432 232.322 195.227 204.435 195.532 199.77C202.428 212.345 211.454 220.356 218.147 225.122ZM236.402 231.105C234.678 234.958 224.232 243.172 220.379 245.91C214.902 244.896 212.367 244.592 207.904 241.854C214.699 238.812 220.379 232.626 223.421 227.353C226.666 229.685 232.042 230.598 236.402 231.105ZM197.661 123.716C193.098 124.73 190.055 131.625 190.562 135.682C198.371 136.189 207.296 136.189 212.671 133.552C215.815 131.321 218.147 126.352 217.945 123.006C212.671 123.006 200.602 122.702 197.661 123.716ZM156.993 123.716C161.557 124.73 164.498 131.625 164.092 135.682C156.182 136.189 147.359 136.189 141.984 133.552C138.84 131.321 136.507 126.352 136.609 123.006C141.984 123.006 153.849 122.702 156.993 123.716ZM112.776 249.054C116.731 249.054 119.976 245.809 119.976 241.854C119.976 237.899 116.731 234.553 112.776 234.553C108.82 234.553 105.474 237.899 105.474 241.854C105.474 245.809 108.82 249.054 112.776 249.054ZM270.783 0C287.516 0 301.41 8.72094 311.552 19.977C321.897 30.8275 327.373 49.8919 323.519 66.2183C312.465 56.179 297.861 55.4692 284.068 60.2353L290.153 68.9562L301.106 61.5536C303.642 65.914 307.698 68.2464 306.786 74.0265C314.696 70.8829 323.316 78.387 319.26 84.0658C328.184 81.125 330.416 88.7304 329.503 91.7726C334.472 91.4684 338.935 95.4232 337.718 100.899C343.498 99.6823 345.121 104.854 344.208 110.431C338.63 124.02 332.038 135.479 313.276 140.245L323.519 145.315C317.637 161.033 307.191 174.52 295.528 178.982C319.26 201.393 333.661 229.279 334.675 275.318C334.979 291.948 330.213 322.877 314.493 335.148C332.951 340.319 351.612 359.891 351.003 385.749C350.8 394.065 348.671 402.684 344.614 412.419C333.864 438.176 306.583 440.204 285.082 436.351C262.061 432.295 243.704 419.619 221.596 428.948C213.381 433.714 203.543 442.638 192.489 436.148C182.652 429.253 180.319 424.993 176.262 414.346C172.104 424.486 169.366 428.238 160.441 435.033C150.097 443.044 136.71 435.438 130.524 428.948C106.488 411.202 80.9309 436.148 57.8079 437.568C15.0101 442.942 -0.202366 415.461 0.000467042 387.676C0.101884 363.338 11.8662 338.393 36.5104 338.19C29.107 329.672 20.588 317.401 17.7484 299.554C9.73646 250.98 15.0101 220.66 58.9235 176.244C49.4917 172.086 37.5246 163.568 28.8028 143.997C44.1167 134.769 46.145 129.901 46.4492 128.786C32.2509 116.11 25.3546 96.2345 29.6141 76.5617C30.8311 71.1872 33.2651 67.8408 36.9161 64.4944C39.5529 63.2775 44.6237 61.8578 46.3478 65.8126C50.4045 60.8437 57.4022 60.6409 60.5461 65.5084C64.5014 60.6409 70.5864 61.1479 74.4402 66.5225C76.1643 61.1479 87.9286 59.8297 88.1315 72.7083C90.9711 65.7112 100.91 63.7845 106.386 64.4944C105.271 67.3337 103.75 69.159 103.952 73.7223C104.358 81.9362 103.851 89.5417 104.257 97.1472H110.443C111.254 73.2153 118.151 53.2383 150.097 38.5344C158.515 34.7823 167.541 33.2612 176.972 27.2783C186.1 32.957 195.227 34.2753 203.543 38.5344C238.532 57.1931 242.386 71.39 243.299 96.7415L264.698 98.8711C263.481 91.874 266.32 89.5417 274.332 82.4433L239.952 40.2583L255.165 27.4811L268.349 41.2723C273.825 34.9851 277.476 21.5995 274.941 12.3716C274.332 8.61953 274.637 4.46187 270.783 0Z" fill="black"/>
</g>
<defs>
<clipPath id="clip0">
<rect width="351" height="512" fill="white"/>
</clipPath>
</defs>
</svg>
